<?xml version="1.0" encoding="UTF-8"?>
<svg data-bbox="0.95 0.78 216.17 67.56" xmlns="http://www.w3.org/2000/svg" viewBox="0 0 218 69" height="69" width="218" data-type="color">
    <g>
        <path fill="#000000" d="M7.71.78h202.65c3.73 0 6.76 3.02 6.76 6.76v54.04c0 3.73-3.02 6.76-6.76 6.76H7.71c-3.73 0-6.76-3.02-6.76-6.76V7.54C.96 3.8 3.98.78 7.71.78" data-color="1"/>
        <path fill="#ffffff" d="M43.43 12.26c.36 2.46-.64 4.87-1.96 6.58-1.41 1.83-3.85 3.25-6.21 3.17-.43-2.36.67-4.79 2.02-6.42 1.46-1.8 3.99-3.18 6.15-3.33m7.09 34.65c1.22-1.87 1.67-2.81 2.62-4.91-6.87-2.61-7.98-12.39-1.17-16.14-2.08-2.6-4.99-4.11-7.74-4.11-1.98 0-3.34.52-4.58.99-1.03.39-1.97.75-3.12.75-1.24 0-2.34-.39-3.49-.81-1.26-.45-2.59-.93-4.24-.93-3.09 0-6.38 1.89-8.46 5.11-2.93 4.54-2.43 13.09 2.32 20.37 1.7 2.6 3.97 5.53 6.94 5.56 1.23.01 2.05-.36 2.94-.75 1.02-.46 2.12-.95 4.03-.96 1.92-.01 3.01.49 4.01.95.86.4 1.67.77 2.89.75 2.96-.02 5.35-3.26 7.05-5.87" clip-rule="evenodd" fill-rule="evenodd" data-color="2"/>
        <path fill="#ffffff" d="M70.07 14.97v8.1h2.86c2.64 0 3.6-1.72 3.6-4.07 0-2.37-.99-4.04-3.6-4.04h-2.86zm1.44 1.2h1.25c1.73 0 2.3 1.18 2.3 2.86 0 2-.79 2.84-2.3 2.84h-1.25zM80 18.5c0-1.64.83-2.48 1.95-2.48 1.13 0 1.95.84 1.95 2.48v1.1c0 1.64-.82 2.42-1.95 2.42-1.12 0-1.95-.78-1.95-2.42zm-1.45 1.09c0 2.29 1.29 3.64 3.4 3.64s3.41-1.35 3.41-3.64v-1.08c0-2.3-1.29-3.7-3.4-3.7-2.1 0-3.41 1.4-3.41 3.7zm11.89 3.48L92 17.23h.05l1.56 5.84h1.31l2.17-8.1h-1.54l-1.34 5.95h-.06l-1.48-5.95h-1.29l-1.48 5.95h-.05l-1.35-5.95h-1.54l2.16 8.1zm9.93 0v-5.69h.04l3.76 5.69h1.23v-8.1h-1.34v5.67h-.05l-3.75-5.67h-1.24v8.1zm12.75-1.23h-3.53v-6.87h-1.44v8.1h4.96v-1.23zm3.04-3.34c0-1.64.83-2.48 1.95-2.48 1.13 0 1.95.84 1.95 2.48v1.1c0 1.64-.82 2.42-1.95 2.42-1.12 0-1.95-.78-1.95-2.42zm-1.46 1.09c0 2.29 1.29 3.64 3.4 3.64s3.41-1.35 3.41-3.64v-1.08c0-2.3-1.29-3.7-3.4-3.7-2.1 0-3.41 1.4-3.41 3.7zm9.77 3.48.69-2.18h2.8l.69 2.18h1.54l-2.76-8.1h-1.63l-2.77 8.1zm2.12-6.65 1.06 3.37h-2.17l1.06-3.37zm5.57-1.45v8.1h2.86c2.64 0 3.6-1.72 3.6-4.07 0-2.37-.99-4.04-3.6-4.04h-2.86zm1.43 1.2h1.25c1.73 0 2.3 1.18 2.3 2.86 0 2-.79 2.84-2.3 2.84h-1.25zm11.88 2.33c0-1.64.83-2.48 1.95-2.48 1.13 0 1.95.84 1.95 2.48v1.1c0 1.64-.82 2.42-1.95 2.42-1.12 0-1.95-.78-1.95-2.42zm-1.45 1.09c0 2.29 1.29 3.64 3.4 3.64s3.41-1.35 3.41-3.64v-1.08c0-2.3-1.29-3.7-3.4-3.7-2.1 0-3.41 1.4-3.41 3.7zm10.59 3.48v-5.69h.04l3.76 5.69h1.23v-8.1h-1.34v5.67h-.05l-3.75-5.67h-1.24v8.1zm14.17 0v-6.89h2.36v-1.22H165v1.22h2.35v6.89zm10.81 0v-8.1h-1.44v3.34h-3.61v-3.34h-1.44v8.1h1.44v-3.55h3.61v3.55zm7.87-1.2h-3.69v-2.35h3.47v-1.13h-3.47v-2.23h3.69v-1.2h-5.12v8.1h5.12z" data-color="2"/>
        <path fill="#ffffff" d="m67.41 52.79 7.07-20.71h4.17l7.06 20.71h-3.93l-1.76-5.58h-7.15l-1.76 5.58zm6.27-8.37h5.55l-2.7-8.62h-.14zm14.29 13.79V36.73h3.5v2.32h.14c.33-.77.91-1.38 1.73-1.84.82-.47 1.83-.7 3.03-.7 1.83 0 3.29.64 4.38 1.93q1.65 1.92 1.65 5.37v1.93c0 2.3-.55 4.08-1.65 5.36-1.09 1.27-2.57 1.91-4.45 1.91-1.17 0-2.14-.23-2.91-.68-.77-.46-1.34-1.05-1.7-1.79h-.15v7.68h-3.57zm3.58-12.67c0 1.33.33 2.42.99 3.28.67.85 1.56 1.27 2.69 1.27 1.07 0 1.93-.39 2.56-1.18.65-.8.97-1.96.97-3.47v-1.35c0-1.5-.32-2.65-.96-3.44-.64-.81-1.52-1.21-2.64-1.21q-1.665 0-2.64 1.23c-.65.81-.97 1.89-.97 3.25zm14.01 12.67V36.73h3.5v2.32h.14c.33-.77.91-1.38 1.73-1.84.82-.47 1.83-.7 3.03-.7 1.83 0 3.29.64 4.38 1.93q1.65 1.92 1.65 5.37v1.93c0 2.3-.55 4.08-1.65 5.36-1.09 1.27-2.57 1.91-4.45 1.91-1.17 0-2.14-.23-2.91-.68-.77-.46-1.34-1.05-1.7-1.79h-.15v7.68h-3.57zm3.58-12.67c0 1.33.33 2.42.99 3.28.67.85 1.56 1.27 2.69 1.27 1.07 0 1.93-.39 2.56-1.18.65-.8.97-1.96.97-3.47v-1.35c0-1.5-.32-2.65-.96-3.44-.64-.81-1.52-1.21-2.64-1.21q-1.665 0-2.64 1.23c-.65.81-.97 1.89-.97 3.25zM127.82 47h3.57c.08.92.52 1.69 1.3 2.31.79.61 1.87.91 3.23.91 1.3 0 2.31-.28 3.03-.83.74-.56 1.11-1.31 1.11-2.26 0-.75-.26-1.35-.79-1.79-.52-.45-1.33-.8-2.46-1.08l-3.32-.8c-.72-.16-1.38-.38-1.97-.67s-1.13-.66-1.62-1.09c-.49-.45-.86-1-1.14-1.65-.27-.66-.41-1.4-.41-2.22 0-1.28.35-2.4 1.05-3.35.7-.96 1.61-1.67 2.75-2.14 1.13-.47 2.39-.7 3.78-.7 1.4 0 2.66.24 3.78.71 1.13.48 2.03 1.18 2.7 2.12.68.93 1.03 2.01 1.05 3.25h-3.49c-.07-.9-.46-1.64-1.15-2.23-.7-.59-1.67-.88-2.91-.88-1.16 0-2.1.26-2.81.79-.7.52-1.05 1.23-1.05 2.14 0 1.35.95 2.24 2.85 2.69l3.34.8c.83.19 1.56.43 2.19.71s1.2.65 1.71 1.09c.53.45.93 1 1.2 1.67s.41 1.44.41 2.31c0 2-.74 3.57-2.22 4.7-1.47 1.13-3.42 1.7-5.86 1.7-1.12 0-2.14-.13-3.05-.38-.9-.25-1.64-.58-2.23-.99-.58-.4-1.06-.88-1.46-1.43-.39-.56-.68-1.11-.85-1.67s-.25-1.15-.26-1.74m17.88-7.33v-2.81h2.3v-4.01h3.49v4.01h3.12v2.81h-3.12v8.24c0 .84.18 1.42.53 1.73.36.3 1 .46 1.9.46.39 0 .66-.01.79-.03v2.72c-.52.08-1.07.12-1.67.12-1.31 0-2.33-.17-3.08-.5s-1.27-.82-1.58-1.47c-.29-.66-.44-1.54-.44-2.66v-8.6h-2.24zm10.99 5.64v-1.14c0-1.5.26-2.82.77-3.96a6.25 6.25 0 0 1 2.44-2.73c1.1-.68 2.44-1.02 4.01-1.02 2.35 0 4.13.7 5.36 2.09s1.85 3.25 1.85 5.6v1.15c0 2.41-.61 4.3-1.84 5.69-1.22 1.38-3.01 2.06-5.37 2.06s-4.15-.69-5.39-2.06c-1.22-1.36-1.83-3.26-1.83-5.68m3.6-.09c0 .69.06 1.31.18 1.88s.31 1.09.58 1.58c.26.48.64.85 1.12 1.12.49.27 1.07.41 1.74.41s1.24-.13 1.73-.39q.735-.405 1.11-1.14c.26-.49.45-1.01.56-1.58.12-.57.18-1.19.18-1.88v-.93c0-.7-.06-1.33-.18-1.9-.11-.57-.3-1.09-.56-1.58s-.64-.86-1.12-1.12c-.48-.27-1.05-.41-1.71-.41s-1.25.14-1.74.41-.86.65-1.12 1.14c-.26.48-.45 1-.58 1.58-.12.57-.18 1.19-.18 1.88v.93zm14.11 7.57V36.74h3.58v2.08h.14c.61-1.55 1.88-2.32 3.81-2.32.41 0 .81.04 1.18.11v3.14c-.25-.08-.75-.12-1.49-.12-2.39 0-3.58 1.24-3.58 3.73v9.44h-3.64zm10.01-7.31v-1.35c0-2.35.62-4.21 1.85-5.58 1.23-1.39 2.94-2.08 5.11-2.08 2.21 0 3.92.69 5.13 2.08s1.82 3.24 1.82 5.57v1.44h-10.38v.5c0 1.18.31 2.17.94 2.97s1.52 1.2 2.69 1.2c.92 0 1.64-.2 2.15-.61.53-.4.85-.92.97-1.53h3.46c-.05.46-.17.91-.35 1.35-.17.45-.43.89-.77 1.34s-.76.83-1.24 1.17c-.48.33-1.08.61-1.81.82q-1.095.3-2.4.3c-2.29 0-4.06-.67-5.31-2.02-1.24-1.36-1.86-3.21-1.86-5.57m3.54-2.34h6.89v-.03c0-1.15-.31-2.09-.93-2.81s-1.45-1.08-2.5-1.08c-1.06 0-1.91.36-2.53 1.09q-.93 1.08-.93 2.79z" data-color="2"/>
    </g>
</svg>
