<?xml version="1.0" encoding="UTF-8"?>
<svg data-bbox="0.76 0.76 366.75 52.79" viewBox="0 0 368.25 54.33" xmlns="http://www.w3.org/2000/svg" data-type="ugc">
    <g>
        <path d="M282.44 18.05c-.5-2.01-.96-3.68-1.38-4.97-.41 1.65-.81 3.6-1.21 5.84-.29 1.62-.56 3.29-.82 5.01-.18 1.2-.36 2.4-.53 3.62q1.38-.18 2.79-.33c1.01-.11 2.01-.22 2.98-.33-.29-1.5-.56-2.9-.82-4.2-.33-1.67-.67-3.23-1-4.64Z" stroke="#424242" stroke-miterlimit="10" stroke-width="1.5" fill="none"/>
        <path d="M19.53 10.28c-1.63-.67-3.45-1.06-5.41-1.17-.24 3.91-.4 7.71-.46 11.3-.06 3.53-.12 7.02-.16 10.46 2.97-.32 5.53-1.04 7.61-2.15 2.34-1.25 3.94-2.86 4.89-4.93.49-1.15.75-2.37.75-3.58 0-.35-.05-1.08-.31-2.6-.18-1.07-.9-2.37-2.14-3.87-1.25-1.51-2.86-2.68-4.77-3.46Z" stroke="#424242" stroke-miterlimit="10" stroke-width="1.5" fill="none"/>
        <path d="M51.98 18.05c-.5-2.01-.97-3.69-1.38-4.97-.41 1.65-.81 3.6-1.21 5.84-.29 1.62-.56 3.29-.82 5.01-.18 1.2-.36 2.4-.53 3.62q1.38-.18 2.79-.33c1.01-.11 2.01-.22 2.98-.33-.29-1.5-.56-2.9-.82-4.2-.33-1.64-.67-3.21-1-4.64Z" stroke="#424242" stroke-miterlimit="10" stroke-width="1.5" fill="none"/>
        <path d="M312.27 9.16c-.2 3.29-.34 6.44-.43 9.4-.08 2.77-.13 5.52-.14 8.19 3.32-.58 6.12-1.52 8.35-2.79 3.16-1.88 4.7-4 4.7-6.47 0-.29-.06-.85-.32-1.89-.13-.5-.53-1.35-1.71-2.58-2.35-2.47-5.86-3.77-10.45-3.86Z" stroke="#424242" stroke-miterlimit="10" stroke-width="1.5" fill="none"/>
        <path d="M30.62 8.41c-1.33-1.64-2.96-3.04-4.83-4.17-1.85-1.11-3.9-1.97-6.09-2.55C14.84.41 9.52.55 3.81 2.1c-1.13.33-1.94.91-2.41 1.71-.43.72-.64 1.47-.64 2.22l.08.91.05.26c.33 1.06.92 1.86 1.73 2.35.75.46 1.49.69 2.2.69.3 0 .61-.04.96-.14-.28 5.18-.43 9.63-.45 13.25-.02 4.01-.04 7.34-.04 9.98v15.91c0 1.16.4 2.14 1.19 2.94.78.78 1.8 1.2 2.94 1.2s2.16-.41 2.94-1.19 1.19-1.8 1.19-2.94V39.18c4.47-.4 8.37-1.51 11.59-3.3 3.82-2.09 6.62-4.99 8.31-8.64 1.03-2.27 1.55-4.62 1.55-7 0-4.41-1.48-8.39-4.38-11.8Zm-3.88 11.8c0 1.22-.26 2.43-.75 3.58-.95 2.07-2.55 3.68-4.89 4.93-2.09 1.11-4.64 1.84-7.61 2.15.04-3.44.1-6.93.16-10.46.06-3.6.22-7.4.46-11.3 1.96.11 3.78.5 5.41 1.17 1.91.78 3.51 1.94 4.77 3.46 1.24 1.5 1.96 2.8 2.14 3.87.25 1.52.31 2.26.31 2.6Z" fill="#f6b468" stroke="#424242" stroke-miterlimit="10" stroke-width="1.5"/>
        <path d="M65.59 26.72c-.78-.61-1.63-.91-2.53-.91h-.43l-.58.07c-.44-2.26-.88-4.39-1.29-6.35-.48-2.26-.97-4.32-1.46-6.13-1.03-3.61-2.02-6.38-3.01-8.3q-.21-.36-.57-.96c-.29-.5-.69-.99-1.17-1.47A8 8 0 0 0 52.9 1.4c-.72-.42-1.56-.64-2.58-.64-.63 0-1.34.15-2.11.44-.84.32-1.64.96-2.49 2-.32.43-.65.94-.96 1.52-.32.58-.61 1.25-.85 1.93-.81 2.01-1.56 4.92-2.3 8.89-.38 2.12-.76 4.41-1.12 6.8-.31 2.05-.62 4.1-.91 6.14-.16.02-.32.03-.47.04-.51.03-.98.07-1.38.12-1.12.13-2.04.58-2.72 1.34-.69.76-1.04 1.65-1.04 2.64v.5c.14 1.13.61 2.06 1.4 2.74.78.68 1.7 1.03 2.73 1.03l.45-.02-.46 3.77c-.14 1.17-.29 2.25-.43 3.25s-.27 1.87-.39 2.6c-.14.89-.23 1.23-.28 1.35-.14.41-.21.84-.21 1.26 0 1.95.94 3.34 2.66 3.9q.66.3 1.47.3c.85 0 1.63-.27 2.34-.79.66-.5 1.16-1.14 1.5-1.96.32-.86.62-2.24.9-4.22.27-1.9.62-4.67 1.04-8.16.1-.56.18-1.12.23-1.65l.05-.54 8.34-.97c.35 2.02.71 4.14 1.05 6.34.41 2.61.83 5.38 1.25 8.27.14 1.16.66 2.1 1.53 2.71.79.56 1.64.84 2.52.84h.58c1.16-.14 2.1-.67 2.71-1.54.56-.79.84-1.64.84-2.52v-.43l-2.27-14.67h.01c1.15-.14 2.08-.64 2.7-1.47.57-.77.86-1.61.86-2.51v-.58c-.15-1.15-.63-2.07-1.45-2.71Zm-11.79.17c-.97.1-1.96.21-2.98.33q-1.41.165-2.79.33c.17-1.22.35-2.42.53-3.62.26-1.72.54-3.39.82-5.01.4-2.25.81-4.2 1.21-5.84.41 1.28.87 2.96 1.38 4.97.33 1.43.67 3 1 4.64.26 1.3.53 2.7.82 4.2Z" fill="#f6b468" stroke="#424242" stroke-miterlimit="10" stroke-width="1.5"/>
        <path d="m112.19 6.7-.07-1.68c-.07-1.14-.5-2.09-1.28-2.85-.79-.76-1.72-1.14-2.77-1.14h-.29c-1.15.07-2.1.51-2.83 1.31-.72.79-1.08 1.71-1.08 2.75l.07 1.87c0 1.16.01 2.65.04 4.48.02 1.82.04 3.9.04 6.25s-.05 4.75-.14 7.23c-.1 2.89-.24 5.56-.43 7.93s-.41 4.48-.64 6.25c-.24 1.63-.48 2.92-.71 3.86-.3-.62-.63-1.42-.99-2.39-.56-1.5-1.12-3.24-1.66-5.15-.54-1.94-1.08-4.14-1.6-6.54-.43-2.1-.83-4.16-1.18-6.13-.36-1.98-.66-3.76-.89-5.3-.24-1.53-.4-2.78-.5-3.77l-.22-1.43c-.14-.95-.57-1.78-1.28-2.46-.72-.68-1.6-1.07-2.7-1.14h-.22c-.86 0-1.67.29-2.42.87-.74.57-1.25 1.34-1.54 2.35l-.28 1.32-.94 3.74c-.38 1.53-.84 3.28-1.36 5.24q-.795 2.955-1.65 6.09c-.72 2.44-1.39 4.67-2.01 6.68-.43 1.38-.85 2.66-1.25 3.81-.26-1.76-.52-3.76-.78-5.93-.29-2.4-.55-5.11-.79-8.07-.24-2.54-.46-4.99-.65-7.36s-.35-4.47-.47-6.32c-.12-1.83-.2-3.32-.25-4.53l-.14-1.62c-.07-1.15-.51-2.1-1.31-2.83-.79-.72-1.71-1.08-2.75-1.08h-.29c-1.15.07-2.09.5-2.8 1.27-.69.76-1.04 1.65-1.04 2.64v.36c0 .05.04.73.11 2.05.07 1.28.18 2.96.32 5.06.14 2.09.31 4.46.5 7.1.19 2.62.43 5.34.72 8.08.29 3.28.61 6.24.94 8.8.33 2.57.68 4.85 1.02 6.82.24 1.21.46 2.26.65 3.15.2.93.43 1.78.73 2.58.19.43.36.81.5 1.14.17.4.38.79.64 1.17.61.85 1.29 1.45 2.01 1.78.65.3 1.21.47 1.73.54h.44c.79 0 1.5-.16 2.12-.51a7.26 7.26 0 0 0 2.4-2.14c.2-.29.37-.53.51-.71l.08-.12c.65-1.1 1.4-2.68 2.25-4.71.63-1.6 1.29-3.51 1.97-5.66.67-2.14 1.42-4.58 2.24-7.35l.09-.32c.56 2.63 1.15 5.02 1.75 7.1.63 2.2 1.3 4.13 1.99 5.74.35.84.76 1.73 1.24 2.63.49.92 1.05 1.8 1.67 2.59.65.84 1.4 1.57 2.24 2.16.94.67 2.02 1.03 3.28 1.1.57 0 1.23-.08 1.96-.25.88-.2 1.75-.72 2.59-1.56.56-.56 1.12-1.35 1.72-2.39.59-1.05 1.11-2.54 1.6-4.57.47-1.94.87-4.51 1.22-7.65.34-3.12.58-7.12.73-11.86.1-2.56.15-5.07.15-7.46s-.01-4.54-.04-6.39c-.02-1.84-.04-3.34-.04-4.54Z" fill="#f6b468" stroke="#424242" stroke-miterlimit="10" stroke-width="1.5"/>
        <path d="M136.93 29.32c-1.23-1.08-2.56-2.2-3.96-3.31a128 128 0 0 1-3.78-3.21c-1.2-1.06-2.3-2.16-3.27-3.27-.95-1.09-1.75-2.19-2.38-3.26-.58-.99-.9-2-.98-2.97v-.65c0-.6.11-1.1.35-1.51.25-.45.57-.82.97-1.13.39-.3.79-.5 1.22-.6.54-.13 1.01-.22 1.36-.26l.81-.07c.53 0 1.1.07 1.68.18.89.21 1.76.56 2.59 1.02.78.44 1.44 1.04 2.01 1.84.55.77.91 1.73 1.07 2.84.14 1.16.66 2.1 1.53 2.71.79.56 1.64.84 2.52.84h.59c1.09-.14 2-.64 2.63-1.45.61-.77.91-1.63.91-2.53v-.58c-.27-2.25-.98-4.27-2.11-6.01a14.9 14.9 0 0 0-4.13-4.24c-1.6-1.08-3.23-1.84-4.85-2.26-1.58-.41-3.04-.61-4.39-.61h-.01l-1.64.08c-3.36.31-6.12 1.55-8.19 3.68-2.1 2.15-3.16 4.84-3.16 8.08l.07 1.17c.16 1.98.69 3.87 1.57 5.61a25 25 0 0 0 3.22 4.82c1.26 1.48 2.65 2.91 4.15 4.26a141 141 0 0 0 4.38 3.8l3.17 2.74c1.02.88 1.94 1.76 2.75 2.61.78.82 1.39 1.6 1.82 2.31.36.59.54 1.11.54 1.55v.21c0 .42-.13.76-.41 1.09-.39.44-.88.84-1.47 1.17-.61.35-1.33.62-2.15.81-1.67.38-3.37.37-5.16.06-.82-.14-1.57-.4-2.25-.77-.63-.35-1.18-.81-1.62-1.39-.41-.53-.64-1.19-.72-1.98-.07-1.14-.53-2.11-1.33-2.81-.78-.68-1.68-1.03-2.66-1.03h-.51c-1.13.14-2.04.6-2.71 1.37-.66.76-.99 1.64-.99 2.62v.46c.16 2.07.76 3.94 1.77 5.57 1.01 1.62 2.36 2.96 3.97 3.94 1.26.84 2.72 1.48 4.34 1.9 1.58.41 3.26.62 4.99.62h.47c3.57-.1 6.71-.99 9.35-2.65 1.64-1.06 2.92-2.33 3.81-3.78.89-1.46 1.4-3.09 1.52-4.9v-.43c0-2.89-1.32-5.86-3.89-8.79-1-1.2-2.15-2.37-3.41-3.49Z" fill="#f6b468" stroke="#424242" stroke-miterlimit="10" stroke-width="1.5"/>
        <path d="M197.4 19.1c-.07-2.59-.13-4.92-.18-6.98-.05-2.07-.1-3.76-.15-5.1l-.14-1.78c0-1.15-.42-2.16-1.22-2.92-.78-.74-1.74-1.14-2.77-1.14h-.29c-1.15.07-2.1.51-2.83 1.31-.72.79-1.08 1.71-1.08 2.75l.07 1.92c.05 1.15.1 2.63.14 4.45.05 1.82.1 3.91.14 6.26l.14 7.27c.05 3.05.06 5.69.04 8.07-.01 1.02-.03 1.99-.05 2.91-.41-.93-.83-1.89-1.26-2.89-1.01-2.33-2.01-4.67-3.02-7.01-1.2-2.83-2.39-5.63-3.57-8.39s-2.29-5.26-3.3-7.44c-1.23-2.51-2.19-4.33-2.93-5.56-.52-.89-1.14-1.73-1.84-2.51-.89-.99-2.07-1.49-3.49-1.49-1.2 0-2.3.49-3.26 1.45-.38.38-.72.85-.99 1.41-.26.53-.49 1.2-.68 2.05-.18.79-.33 1.78-.46 2.95-.12 1.16-.21 2.64-.26 4.39-.05 1.9-.07 4.14-.07 6.67l.07 8.44c.05 2.63.13 5.23.25 7.74.12 2.49.22 4.71.29 6.65.07 1.96.15 3.54.22 4.74.07 1.12.1 1.72.11 1.87.07 1.15.49 2.09 1.27 2.8.76.69 1.65 1.04 2.64 1.04h.43c1.15-.07 2.09-.5 2.8-1.27.69-.76 1.04-1.65 1.04-2.64l-.07-2.07c-.05-1.1-.11-2.56-.18-4.39l-.25-6.26c-.1-2.36-.17-4.8-.21-7.26-.1-2.86-.14-5.15-.14-6.8v-4.52c.59 1.31 1.19 2.71 1.8 4.17 1.06 2.55 2.15 5.06 3.21 7.46q1.725 4.11 3.42 8.04c1.11 2.58 2.17 4.93 3.15 6.99.53 1.11 1.02 2.1 1.45 2.97.47.93.89 1.68 1.28 2.26.24.39.45.72.62.98.22.35.48.67.78.97.65.65 1.27 1.1 1.87 1.35.61.26 1.2.39 1.75.39h.59c.54-.08 1.13-.29 1.82-.66.79-.43 1.42-1.22 1.93-2.43.11-.27.22-.6.33-.98.1-.36.2-.76.31-1.22l.02-.1c.1-.68.2-1.48.29-2.38.1-.9.19-1.93.29-3.13.1-1.85.17-3.76.22-5.69.05-1.96.07-3.66.07-5.13l-.07-4.52c0-2.76-.04-5.46-.11-8.03Z" fill="#f6b468" stroke="#424242" stroke-miterlimit="10" stroke-width="1.5"/>
        <path d="M204.8 6.06q-.84-.42-1.71-.42c-1.75 0-3.06.85-3.78 2.42q-.42.84-.42 1.71c0 1.67.8 2.98 2.4 3.81.58.25 1.03.6 1.38 1.06.35.45.55.92.62 1.41l.06.49c-.02.65-.29 1.17-.85 1.64-.91.77-1.37 1.51-1.41 2.28-.03.45-.04.73-.04.83 0 1.03.37 1.98 1.1 2.81.76.87 1.81 1.32 3.03 1.32 1.08 0 2.02-.35 2.77-1.03 1.4-1.23 2.37-2.58 2.9-3.99.5-1.36.76-2.66.76-3.86 0-2.59-.8-4.88-2.34-6.8-1.12-1.49-2.62-2.73-4.48-3.68Z" fill="#f6b468" stroke="#424242" stroke-miterlimit="10" stroke-width="1.5"/>
        <path d="M258.3 18.13c-.33-2.36-.67-4.57-1.02-6.61l9.25-.5c1.15-.07 2.1-.51 2.83-1.3.72-.79 1.08-1.71 1.08-2.75v-.36c-.14-1.12-.6-2.05-1.38-2.76-.79-.72-1.71-1.08-2.81-1.08l-10.71.6c-.31-.74-.77-1.32-1.39-1.73-.76-.49-1.53-.74-2.3-.74l-.79.08-.12.02c-.96.2-1.74.68-2.33 1.41-.33.41-.58.86-.74 1.35l-12.08.61c-1.13.13-2.05.6-2.74 1.39-.68.78-1.03 1.7-1.03 2.73v.29c.07 1.08.52 2.04 1.31 2.75.79.72 1.74 1.08 2.82 1.08h.2c2.02-.1 4.2-.22 6.53-.36 1.93-.12 3.96-.23 6.05-.31.53 2.95.96 5.8 1.27 8.46.35 3 .57 5.4.64 7.14.07 1.76.11 3.12.11 4.05 0 3.67-.36 6.5-1.07 8.42-.7 1.88-1.5 3.26-2.39 4.1-.76.73-1.5 1.11-2.2 1.13l-.44-.05c-.61-.1-1.24-.45-1.87-1.05-.7-.66-1.35-1.6-1.93-2.8-.61-1.25-1.12-2.78-1.53-4.53-.41-1.74-.62-3.79-.62-6.09 0-1.15-.42-2.16-1.21-2.92s-1.77-1.14-2.92-1.14-2.16.41-2.94 1.19-1.19 1.8-1.19 2.96c.05 2.95.35 5.72.89 8.24.55 2.57 1.43 4.87 2.57 6.82 1.13 2.05 2.49 3.73 4.06 4.98 1.58 1.26 3.31 2.07 5.16 2.4.38.12.76.18 1.13.18h.76c2.37 0 4.65-.78 6.83-2.37 2.42-1.96 4.3-4.71 5.57-8.18.76-2.11 1.22-4.31 1.37-6.53.15-2.13.22-4.05.22-5.73l-.07-3.71c-.15-2.9-.43-5.86-.84-8.79Z" fill="#f6b468" stroke="#424242" stroke-miterlimit="10" stroke-width="1.5"/>
        <path d="M296.06 26.72c-.77-.61-1.63-.91-2.53-.91h-.43l-.58.07c-.45-2.29-.88-4.42-1.29-6.35-.48-2.26-.97-4.31-1.46-6.13-1.02-3.61-2.02-6.38-3.01-8.3q-.21-.36-.57-.96c-.29-.5-.69-.99-1.17-1.47s-1.04-.9-1.65-1.27c-.72-.43-1.57-.64-2.58-.64-.64 0-1.33.15-2.1.44-.84.32-1.64.96-2.5 2-.32.43-.65.94-.96 1.52-.32.59-.61 1.25-.85 1.93-.81 2.01-1.56 4.91-2.3 8.89-.38 2.15-.76 4.44-1.12 6.8-.31 2.05-.62 4.1-.91 6.14-.16.02-.32.03-.47.04-.51.03-.98.07-1.38.12-1.12.13-2.04.58-2.72 1.34-.69.76-1.04 1.65-1.04 2.64v.5c.14 1.13.61 2.06 1.4 2.74.78.68 1.7 1.03 2.73 1.03l.45-.02-.46 3.77c-.14 1.17-.29 2.25-.43 3.25s-.28 1.87-.39 2.61c-.15.92-.24 1.25-.27 1.35-.14.41-.21.84-.21 1.26 0 1.95.94 3.34 2.66 3.9q.66.3 1.47.3c.85 0 1.63-.27 2.33-.79.66-.49 1.16-1.14 1.5-1.96.32-.86.62-2.24.9-4.23.27-1.91.62-4.68 1.04-8.16.1-.55.18-1.11.23-1.66l.05-.54 8.34-.97c.36 2.03.71 4.16 1.05 6.34.41 2.61.83 5.38 1.25 8.27.14 1.16.66 2.1 1.53 2.71.79.56 1.64.84 2.52.84h.58c1.16-.14 2.1-.67 2.71-1.54.56-.79.84-1.64.84-2.52v-.43L293.99 34h.01c1.15-.14 2.08-.64 2.7-1.47.57-.77.86-1.61.86-2.51v-.58c-.15-1.15-.63-2.07-1.45-2.71Zm-11.79.17c-.97.1-1.96.21-2.98.33q-1.41.165-2.79.33c.17-1.22.35-2.42.53-3.62.26-1.72.54-3.39.82-5.01.4-2.25.81-4.2 1.21-5.84.41 1.29.88 2.96 1.38 4.97.33 1.41.67 2.97 1 4.64.26 1.3.53 2.7.82 4.2Z" fill="#f6b468" stroke="#424242" stroke-miterlimit="10" stroke-width="1.5"/>
        <path d="M332.79 41.9c-.94-1.36-1.89-2.78-2.83-4.22-.93-1.44-1.85-2.87-2.76-4.31-.65-1.02-1.27-2.03-1.87-3.01 3.25-2.11 5.51-4.79 6.74-7.98.58-1.57.87-3.22.87-4.89 0-3.72-1.42-7.13-4.23-10.15C324.64 3.02 319 .83 311.96.83c-3.38 0-7.01.6-10.79 1.78-1.15.34-1.96.95-2.41 1.81-.38.73-.57 1.45-.57 2.13 0 .42.07.85.2 1.24.34 1.09.95 1.88 1.82 2.35 1.27.69 2.42.73 3.3.43l.41-.11c-.18 3.29-.31 6.23-.37 8.74-.07 2.9-.11 5.52-.11 7.81v3.33c.05 3.31.13 6.58.25 9.71s.28 6.32.47 9.5c.07 1.09.5 2.02 1.28 2.77.79.76 1.75 1.14 2.85 1.14h.29c1.12-.14 2.05-.6 2.76-1.38.72-.79 1.08-1.71 1.08-2.75v-.31c-.36-4.62-.57-9.31-.63-13.94q1.605-.24 3.09-.54c1-.2 1.98-.44 2.93-.72.67 1.1 1.38 2.26 2.13 3.46.94 1.52 1.92 3.06 2.93 4.63s2.03 3.1 3.04 4.6c1.01 1.49 2.04 2.92 3.06 4.22.81 1.08 1.95 1.65 3.3 1.65.89 0 1.72-.27 2.46-.81.97-.69 1.51-1.48 1.6-2.34.05-.55.08-.88.08-.99 0-.89-.27-1.72-.83-2.48-.9-1.18-1.83-2.47-2.77-3.84Zm-8.04-24.42c0 2.48-1.54 4.6-4.7 6.47-2.22 1.27-5.03 2.21-8.35 2.79.01-2.67.06-5.42.14-8.19.08-2.96.23-6.11.43-9.4 4.59.09 8.11 1.39 10.45 3.86 1.18 1.23 1.58 2.08 1.71 2.58.27 1.03.32 1.6.32 1.89Z" fill="#f6b468" stroke="#424242" stroke-miterlimit="10" stroke-width="1.5"/>
        <path d="M363.61 32.81c-1-1.2-2.15-2.37-3.41-3.48-1.22-1.08-2.56-2.19-3.96-3.31-1.28-1.05-2.55-2.12-3.78-3.21-1.2-1.06-2.3-2.16-3.27-3.27-.95-1.09-1.75-2.18-2.38-3.26-.58-1-.9-2-.98-2.97v-.65c0-.6.11-1.1.34-1.51.25-.46.57-.83.97-1.13.39-.3.79-.5 1.22-.6.54-.13 1.01-.22 1.36-.26l.81-.07c.53 0 1.1.07 1.68.18.89.21 1.76.56 2.59 1.02.78.44 1.44 1.04 2.01 1.84.55.77.91 1.73 1.07 2.84.14 1.16.67 2.1 1.53 2.71.79.56 1.64.84 2.52.84h.59c1.09-.14 2-.64 2.63-1.45.61-.77.92-1.63.92-2.54v-.58c-.27-2.25-.98-4.27-2.11-6.01a14.9 14.9 0 0 0-4.13-4.24c-1.6-1.08-3.23-1.84-4.85-2.26-1.58-.41-3.04-.61-4.39-.61h-.01l-1.64.08c-3.36.31-6.12 1.55-8.19 3.68-2.1 2.15-3.16 4.85-3.16 8.08l.07 1.17c.16 1.98.68 3.87 1.57 5.62.86 1.69 1.94 3.31 3.22 4.82 1.26 1.48 2.65 2.91 4.15 4.26 1.46 1.31 2.93 2.6 4.38 3.8l3.17 2.74c1.02.88 1.94 1.76 2.75 2.61.78.82 1.39 1.6 1.82 2.31.36.59.54 1.11.54 1.55v.21c0 .42-.13.76-.41 1.09-.39.44-.88.84-1.47 1.17-.61.35-1.33.62-2.15.81-1.67.38-3.37.37-5.16.06-.82-.14-1.58-.4-2.25-.77-.64-.35-1.17-.8-1.62-1.39-.41-.53-.64-1.19-.71-1.98-.07-1.14-.53-2.11-1.33-2.81-.79-.68-1.68-1.03-2.66-1.03h-.51c-1.13.14-2.04.6-2.7 1.37-.66.76-.99 1.64-.99 2.62v.46c.16 2.07.76 3.94 1.77 5.57 1.01 1.62 2.36 2.96 3.97 3.94 1.26.84 2.72 1.48 4.34 1.9 1.58.41 3.26.62 4.99.62h.47c3.57-.1 6.71-.99 9.35-2.65 1.64-1.06 2.92-2.33 3.81-3.78.89-1.46 1.4-3.09 1.51-4.9v-.43c0-2.89-1.32-5.86-3.89-8.79Z" fill="#f6b468" stroke="#424242" stroke-miterlimit="10" stroke-width="1.5"/>
    </g>
</svg>
