<?xml version="1.0" encoding="UTF-8"?>
<svg data-bbox="2.5 2.5 518 518" viewBox="0 0 523 576.65" xmlns="http://www.w3.org/2000/svg" data-type="ugc">
    <g>
        <path stroke="#000000" stroke-width="5" stroke-linecap="round" fill="#f7b569" stroke-linejoin="round" d="M520.5 26.5v470c0 13.255-10.745 24-24 24h-470c-13.255 0-24-10.745-24-24v-470c0-13.255 10.745-24 24-24h470c13.255 0 24 10.745 24 24"/>
        <path stroke-miterlimit="10" stroke="#000000" stroke-width="5" fill="#f2f2da" d="M501.5 41.5V482c0 11.046-8.954 20-20 20H41c-11.046 0-20-8.954-20-20V41.5c0-11.046 8.954-20 20-20h440.5c11.046 0 20 8.954 20 20z"/>
        <path fill="#d68a3a" d="m478.91 511.83-28.57-46.39-61.69-78.54-182.06 3.23 22.42 121.7"/>
        <g>
            <path fill="#d68a3a" d="m137.87 510.65 64.01-112.14"/>
            <path d="M229.92 358.55c16.06 7 34.07 15.08 50.13 22.08L227 516.99l-92.31.05" fill="#d68a3a"/>
            <path stroke="#000000" stroke-linecap="round" stroke-width="10" fill="#d68a3a" stroke-linejoin="round" d="m202.8 400.55-62.78 111.28"/>
            <path d="M206.59 510.65c-8.92-18.94-14.02-40.84-14.02-64.18 0-12.55 3.34-28.58 6.09-40.07" stroke-miterlimit="10" stroke="#000000" stroke-linecap="round" stroke-width="10" fill="#d68a3a"/>
            <path d="M484 509.46c-45-58.64-87.75-115.34-87.75-115.34" stroke="#000000" stroke-linecap="round" stroke-width="10" fill="#d68a3a" stroke-linejoin="round"/>
            <path stroke="#000000" stroke-linecap="round" stroke-width="10" fill="#d68a3a" stroke-linejoin="round" d="m360.74 478.66 18.82 31.99"/>
            <path d="M185.97 168.34s-16.2-154.53 2.7-150.94c0 0 21.24-8.49 82.63 114.99" stroke-miterlimit="10" stroke="#000000" stroke-width="10" fill="#d68a3a"/>
            <path d="M233.47 122.15c-18.75 6.46-24.78 11.57-28.2 14.03-1.85 1.33-2.37.78-2.74-.46-6.8-22.61-8.36-94.82-8.36-94.82" stroke-miterlimit="10" stroke="#000000" stroke-linecap="round" stroke-width="7" fill="#d68a3a"/>
            <path d="M387.67 400.4c9.56-8.55 55.67-52.36 55.5-118-.19-75.12-62.25-156.5-152.5-156.5s-152.86 79.93-152.5 156.5c0 .9.02 1.8.04 2.69-1.24.18-2.48.37-3.7.56-43.77 6.82-101.39 34.42-100.84 60.25.66 31.2 66 51.5 100 55.5 25.32 2.98 48.43 4.76 65 5h7" stroke-miterlimit="10" stroke="#000000" stroke-linecap="round" stroke-width="10" fill="#d68a3a"/>
            <path stroke-miterlimit="10" stroke="#000000" stroke-linecap="round" stroke-width="10" fill="#d68a3a" d="m148.67 283.4-13 2"/>
            <path d="M90.17 296.9c-.11 8.15-.44 16.58-1.03 25.29-1.6 23.61-4.88 45.26-8.97 64.71-6.28-2.39-15.45-6.6-25-14-8.19-6.35-19.16-14.84-21-24-3.14-15.62 19.4-37.65 56-52Z" stroke-miterlimit="10" stroke="#000000" stroke-width="5" stroke-linecap="round"/>
            <path d="m299.67 141.4 6.18-12.69C367.23 5.24 388.48 13.73 388.48 13.73c18.9-3.59 3.19 166.68 3.19 166.68" stroke-miterlimit="10" stroke="#000000" stroke-linecap="round" stroke-width="10" fill="#d68a3a"/>
            <path d="M339.67 128.59c21.79 6.67 28.92 12.31 32.95 15 2.18 1.46 2.75.8 3.13-.64 6.91-26.24 5.42-104.04 5.42-104.04" stroke-miterlimit="10" stroke="#000000" stroke-linecap="round" stroke-width="7" fill="#d68a3a"/>
            <path d="M354.1 346.4c3.58 0 6.57 2.16 6.57 4.87v.05c0 30.42-35.59 55.08-79.5 55.08s-79.5-24.66-79.5-55.08v-.05c0-2.7 2.99-4.87 6.57-4.87z" stroke-miterlimit="10" stroke="#000000" stroke-width="10"/>
            <path stroke-miterlimit="10" stroke-width="10" fill="#ed1c24" stroke="#ed1c24" d="M324.15 384.4c0 7.18-18.594 13-41.53 13s-41.53-5.82-41.53-13 18.594-13 41.53-13 41.53 5.82 41.53 13z"/>
            <path stroke-miterlimit="10" stroke="#000000" fill="#ffe8e0" stroke-width="7" d="M282.17 237.4c0 34.518-27.982 62.5-62.5 62.5s-62.5-27.982-62.5-62.5 27.982-62.5 62.5-62.5 62.5 27.982 62.5 62.5z"/>
            <path stroke-miterlimit="10" stroke="#000000" fill="#ffe8e0" stroke-width="7" d="M410.17 237.4c0 34.518-27.982 62.5-62.5 62.5s-62.5-27.982-62.5-62.5 27.982-62.5 62.5-62.5 62.5 27.982 62.5 62.5z"/>
            <path stroke-miterlimit="10" stroke="#000000" stroke-width="5" d="M370.17 237.9c0 23.196-18.804 42-42 42s-42-18.804-42-42 18.804-42 42-42 42 18.804 42 42z"/>
            <path stroke-miterlimit="10" stroke="#000000" stroke-width="5" d="M241.17 237.9c0 23.196-18.804 42-42 42s-42-18.804-42-42 18.804-42 42-42 42 18.804 42 42z"/>
        </g>
        <g>
            <path stroke-miterlimit="10" stroke="#000000" stroke-width="5" fill="none" d="M134.8 502h350.46"/>
            <path stroke-miterlimit="10" stroke="#000000" stroke-width="5" fill="none" d="M119.61 520.5h371.45"/>
            <path fill="#f7b569" d="M131.5 504.5h359.56l5.44 13.5H128.69z"/>
        </g>
    </g>
</svg>
