<?xml version="1.0" encoding="UTF-8"?>
<svg data-bbox="0.95 0.19 216.17 67.56" xmlns="http://www.w3.org/2000/svg" viewBox="0 0 218 68" height="68" width="218" data-type="ugc">
    <g>
        <path fill="#000000" d="M7.71.19h202.65c3.73 0 6.76 3.02 6.76 6.76v54.04c0 3.73-3.02 6.76-6.76 6.76H7.71c-3.73 0-6.76-3.02-6.76-6.76V6.95C.96 3.22 3.98.19 7.71.19"/>
        <path fill="#ffffff" d="M110.77 36.65c-3.73 0-6.77 2.8-6.77 6.67 0 3.83 3.04 6.67 6.77 6.67s6.78-2.83 6.78-6.67c-.01-3.87-3.05-6.67-6.78-6.67m0 10.71c-2.04 0-3.8-1.67-3.8-4.04 0-2.4 1.76-4.04 3.8-4.04s3.81 1.64 3.81 4.04c0 2.37-1.77 4.04-3.81 4.04M96 36.65c-3.73 0-6.77 2.8-6.77 6.67 0 3.83 3.04 6.67 6.77 6.67s6.77-2.83 6.77-6.67c0-3.87-3.04-6.67-6.77-6.67m0 10.71c-2.05 0-3.81-1.67-3.81-4.04 0-2.4 1.76-4.04 3.81-4.04 2.04 0 3.8 1.64 3.8 4.04 0 2.37-1.76 4.04-3.8 4.04m-17.57-8.67v2.83h6.85c-.2 1.58-.74 2.75-1.56 3.56-1 .98-2.56 2.07-5.29 2.07-4.21 0-7.51-3.36-7.51-7.52s3.3-7.53 7.51-7.53c2.28 0 3.94.88 5.16 2.02l2.02-2c-1.71-1.61-3.99-2.86-7.18-2.86-5.78 0-10.63 4.65-10.63 10.36s4.86 10.36 10.63 10.36c3.12 0 5.47-1.01 7.31-2.91 1.89-1.87 2.48-4.49 2.48-6.61 0-.66-.06-1.26-.15-1.77zm71.86 2.2c-.56-1.49-2.28-4.24-5.78-4.24-3.47 0-6.36 2.7-6.36 6.67 0 3.73 2.86 6.67 6.69 6.67 3.1 0 4.89-1.87 5.62-2.95l-2.3-1.51c-.77 1.11-1.81 1.84-3.32 1.84-1.5 0-2.58-.68-3.27-2.02l9.02-3.69zm-9.2 2.22c-.08-2.57 2.02-3.89 3.52-3.89 1.18 0 2.18.58 2.51 1.42zm-7.34 6.47h2.97v-19.6h-2.97zm-4.85-11.45h-.1c-.67-.78-1.94-1.48-3.55-1.48-3.38 0-6.47 2.93-6.47 6.69 0 3.74 3.09 6.64 6.47 6.64 1.61 0 2.88-.71 3.55-1.51h.1v.96c0 2.55-1.38 3.92-3.6 3.92-1.81 0-2.94-1.29-3.4-2.38l-2.58 1.06c.74 1.77 2.71 3.94 5.98 3.94 3.48 0 6.41-2.02 6.41-6.94V37.06h-2.81zm-3.4 9.23c-2.04 0-3.75-1.69-3.75-4.02 0-2.35 1.71-4.06 3.75-4.06 2.01 0 3.6 1.71 3.6 4.06.01 2.33-1.58 4.02-3.6 4.02m38.67-17.38h-7.09v19.6h2.96v-7.43h4.14c3.29 0 6.51-2.35 6.51-6.09-.01-3.73-3.24-6.08-6.52-6.08m.08 9.45h-4.21v-6.72h4.21c2.21 0 3.47 1.81 3.47 3.36 0 1.51-1.26 3.36-3.47 3.36m18.28-2.82c-2.14 0-4.36.93-5.27 3l2.63 1.09c.56-1.09 1.6-1.44 2.7-1.44 1.53 0 3.09.91 3.11 2.52v.21c-.53-.31-1.68-.76-3.09-.76-2.83 0-5.71 1.54-5.71 4.41 0 2.63 2.32 4.32 4.92 4.32 1.99 0 3.09-.89 3.78-1.92h.1v1.51h2.86v-7.52c0-3.47-2.63-5.42-6.03-5.42m-.35 10.74c-.97 0-2.32-.47-2.32-1.66 0-1.52 1.68-2.1 3.14-2.1 1.3 0 1.91.28 2.7.66-.23 1.81-1.81 3.1-3.52 3.1m16.79-10.31-3.4 8.49h-.1l-3.52-8.49h-3.19l5.28 11.87-3.01 6.61h3.09l8.14-18.48zM172.3 49.58h2.97v-19.6h-2.97z"/>
        <path stroke-linejoin="round" stroke-linecap="round" stroke-width=".135" stroke="#ffffff" d="M110.77 36.65c-3.73 0-6.77 2.8-6.77 6.67 0 3.83 3.04 6.67 6.77 6.67s6.78-2.83 6.78-6.67c-.01-3.87-3.05-6.67-6.78-6.67m0 10.71c-2.04 0-3.8-1.67-3.8-4.04 0-2.4 1.76-4.04 3.8-4.04s3.81 1.64 3.81 4.04c0 2.37-1.77 4.04-3.81 4.04M96 36.65c-3.73 0-6.77 2.8-6.77 6.67 0 3.83 3.04 6.67 6.77 6.67s6.77-2.83 6.77-6.67c0-3.87-3.04-6.67-6.77-6.67m0 10.71c-2.05 0-3.81-1.67-3.81-4.04 0-2.4 1.76-4.04 3.81-4.04 2.04 0 3.8 1.64 3.8 4.04 0 2.37-1.76 4.04-3.8 4.04m-17.57-8.67v2.83h6.85c-.2 1.58-.74 2.75-1.56 3.56-1 .98-2.56 2.07-5.29 2.07-4.21 0-7.51-3.36-7.51-7.52s3.3-7.53 7.51-7.53c2.28 0 3.94.88 5.16 2.02l2.02-2c-1.71-1.61-3.99-2.86-7.18-2.86-5.78 0-10.63 4.65-10.63 10.36s4.86 10.36 10.63 10.36c3.12 0 5.47-1.01 7.31-2.91 1.89-1.87 2.48-4.49 2.48-6.61 0-.66-.06-1.26-.15-1.77zm71.86 2.2c-.56-1.49-2.28-4.24-5.78-4.24-3.47 0-6.36 2.7-6.36 6.67 0 3.73 2.86 6.67 6.69 6.67 3.1 0 4.89-1.87 5.62-2.95l-2.3-1.51c-.77 1.11-1.81 1.84-3.32 1.84-1.5 0-2.58-.68-3.27-2.02l9.02-3.69zm-9.2 2.22c-.08-2.57 2.02-3.89 3.52-3.89 1.18 0 2.18.58 2.51 1.42zm-7.34 6.47h2.97v-19.6h-2.97zm-4.85-11.45h-.1c-.67-.78-1.94-1.48-3.55-1.48-3.38 0-6.47 2.93-6.47 6.69 0 3.74 3.09 6.64 6.47 6.64 1.61 0 2.88-.71 3.55-1.51h.1v.96c0 2.55-1.38 3.92-3.6 3.92-1.81 0-2.94-1.29-3.4-2.38l-2.58 1.06c.74 1.77 2.71 3.94 5.98 3.94 3.48 0 6.41-2.02 6.41-6.94V37.06h-2.81zm-3.4 9.23c-2.04 0-3.75-1.69-3.75-4.02 0-2.35 1.71-4.06 3.75-4.06 2.01 0 3.6 1.71 3.6 4.06.01 2.33-1.58 4.02-3.6 4.02m38.67-17.38h-7.09v19.6h2.96v-7.43h4.14c3.29 0 6.51-2.35 6.51-6.09-.01-3.73-3.24-6.08-6.52-6.08m.08 9.45h-4.21v-6.72h4.21c2.21 0 3.47 1.81 3.47 3.36 0 1.51-1.26 3.36-3.47 3.36m18.28-2.82c-2.14 0-4.36.93-5.27 3l2.63 1.09c.56-1.09 1.6-1.44 2.7-1.44 1.53 0 3.09.91 3.11 2.52v.21c-.53-.31-1.68-.76-3.09-.76-2.83 0-5.71 1.54-5.71 4.41 0 2.63 2.32 4.32 4.92 4.32 1.99 0 3.09-.89 3.78-1.92h.1v1.51h2.86v-7.52c0-3.47-2.63-5.42-6.03-5.42m-.35 10.74c-.97 0-2.32-.47-2.32-1.66 0-1.52 1.68-2.1 3.14-2.1 1.3 0 1.91.28 2.7.66-.23 1.81-1.81 3.1-3.52 3.1m16.79-10.31-3.4 8.49h-.1l-3.52-8.49h-3.19l5.28 11.87-3.01 6.61h3.09l8.14-18.48zM172.3 49.58h2.97v-19.6h-2.97z" fill="none"/>
        <path fill="url(#faea09fa-9e90-4796-a85d-dd37abe50d46)" d="M19.25 14.37c-.47.48-.74 1.23-.74 2.2v34.67c0 .97.27 1.72.74 2.2l.11.11 19.65-19.42v-.46L19.36 14.25z"/>
        <path fill="url(#2024a059-4ffe-44d2-8931-d46776ad8e2f)" d="m45.57 40.61-6.54-6.48v-.46l6.55-6.48.15.08 7.76 4.36c2.21 1.24 2.21 3.28 0 4.52l-7.76 4.36z"/>
        <path fill="url(#f68a5b3f-2748-44e2-8092-d8f6a2fd99ee)" d="m45.72 40.52-6.7-6.62-19.77 19.54c.74.76 1.93.86 3.3.09z"/>
        <path fill="url(#2c534a87-5b21-431a-a3dc-dee8bfb02ac7)" d="M45.72 27.28 22.55 14.27c-1.36-.76-2.56-.66-3.3.1L39.02 33.9z"/>
        <path fill="#ffffff" d="M69.82 18.54v-1.17c0-1.26.34-2.25 1.01-2.97.68-.73 1.6-1.1 2.76-1.1.55 0 1.04.08 1.48.25s.81.39 1.09.68c.28.28.5.6.65.96.16.36.25.73.26 1.13h-1.56q-.105-.795-.63-1.23c-.36-.29-.79-.44-1.31-.44-.64 0-1.16.23-1.56.68s-.59 1.13-.59 2.04v1.16c0 .86.18 1.54.53 2.03.36.49.9.73 1.62.73.59 0 1.08-.16 1.44-.49.37-.33.55-.74.55-1.24v-.65h-1.99v-1.24h3.52v1.81c0 .28-.04.56-.11.84s-.2.56-.38.85q-.27.42-.66.75c-.26.21-.6.39-1.02.53-.41.13-.87.2-1.37.2-1.24 0-2.17-.37-2.8-1.11q-.93-1.11-.93-3m9.98 3.94v-9h5.69v1.33h-4.1v2.47h3.85v1.26h-3.85v2.61h4.1v1.33zm7.58-7.65v-1.35h6.81v1.35h-2.62v7.65h-1.58v-7.65zm12.76 7.65v-9h1.6v9zm3.8-7.65v-1.35h6.81v1.35h-2.62v7.65h-1.58v-7.65zm12.4 3.79v-1.2c0-1.28.34-2.28 1.02-3.01s1.6-1.1 2.77-1.1 2.09.37 2.76 1.1 1.01 1.74 1.01 3.01v1.2q0 1.905-1.02 2.97c-.67.71-1.6 1.07-2.78 1.07-1.17 0-2.1-.36-2.76-1.07s-1-1.7-1-2.97m1.61 0c0 .88.2 1.55.59 2 .4.45.92.68 1.58.68.65 0 1.17-.23 1.57-.68.4-.46.59-1.13.59-2V17.4q0-1.32-.6-2.04c-.4-.47-.92-.71-1.56-.71-.65 0-1.18.24-1.58.71-.4.48-.59 1.16-.59 2.04zm8.66 3.86v-9h1.38l4.14 6.3h.05v-6.3h1.52v9h-1.37l-4.15-6.32h-.05v6.32z"/>
        <defs fill="none">
            <linearGradient gradientUnits="userSpaceOnUse" y2="25.081" x2="10.877" y1="51.696" x1="37.183" id="faea09fa-9e90-4796-a85d-dd37abe50d46">
                <stop stop-color="#00A0FF" offset="0"/>
                <stop stop-color="#00A1FF" offset=".007"/>
                <stop stop-color="#00BEFF" offset=".26"/>
                <stop stop-color="#00D2FF" offset=".512"/>
                <stop stop-color="#00DFFF" offset=".76"/>
                <stop stop-color="#00E3FF" offset="1"/>
            </linearGradient>
            <linearGradient gradientUnits="userSpaceOnUse" y2="33.903" x2="17.989" y1="33.903" x1="56.366" id="2024a059-4ffe-44d2-8931-d46776ad8e2f">
                <stop stop-color="#FFE000" offset="0"/>
                <stop stop-color="#FFBD00" offset=".409"/>
                <stop stop-color="#FFA500" offset=".775"/>
                <stop stop-color="#FF9C00" offset="1"/>
            </linearGradient>
            <linearGradient gradientUnits="userSpaceOnUse" y2="7.249" x2="-6.784" y1="43.342" x1="28.889" id="f68a5b3f-2748-44e2-8092-d8f6a2fd99ee">
                <stop stop-color="#FF3A44" offset="0"/>
                <stop stop-color="#C31162" offset="1"/>
            </linearGradient>
            <linearGradient gradientUnits="userSpaceOnUse" y2="36.147" x2="17.344" y1="52.263" x1="1.415" id="2c534a87-5b21-431a-a3dc-dee8bfb02ac7">
                <stop stop-color="#32A071" offset="0"/>
                <stop stop-color="#2DA771" offset=".069"/>
                <stop stop-color="#15CF74" offset=".476"/>
                <stop stop-color="#06E775" offset=".801"/>
                <stop stop-color="#00F076" offset="1"/>
            </linearGradient>
        </defs>
    </g>
</svg>
