<?xml version="1.0" encoding="UTF-8"?>
<svg data-bbox="15.36 15.36 225.28 225.28" height="50" width="50" viewBox="0 0 256 256" xmlns="http://www.w3.org/2000/svg" data-type="color">
    <g>
        <path d="M81.92 15.36c-36.698 0-66.56 29.862-66.56 66.56v92.16c0 36.698 29.862 66.56 66.56 66.56h92.16c36.698 0 66.56-29.862 66.56-66.56V81.92c0-36.698-29.862-66.56-66.56-66.56zm0 10.24h92.16c31.163 0 56.32 25.157 56.32 56.32v92.16c0 31.163-25.157 56.32-56.32 56.32H81.92c-31.163 0-56.32-25.157-56.32-56.32V81.92c0-31.163 25.157-56.32 56.32-56.32m107.52 30.72c-5.655 0-10.24 4.585-10.24 10.24s4.585 10.24 10.24 10.24 10.24-4.585 10.24-10.24-4.585-10.24-10.24-10.24M128 71.68c-31.044 0-56.32 25.276-56.32 56.32s25.276 56.32 56.32 56.32 56.32-25.276 56.32-56.32S159.044 71.68 128 71.68m0 10.24c25.51 0 46.08 20.57 46.08 46.08s-20.57 46.08-46.08 46.08S81.92 153.51 81.92 128 102.49 81.92 128 81.92" fill="#424242" style="mix-blend-mode:normal" text-anchor="none" font-size="none" font-weight="none" font-family="none" data-color="1"/>
    </g>
</svg>
