<?xml version="1.0" encoding="UTF-8"?>
<svg data-bbox="10.24 10.24 235.52 235.52" height="50" width="50" viewBox="0 0 256 256" xmlns="http://www.w3.org/2000/svg" data-type="color">
    <g>
        <path d="M128 10.24C63.024 10.24 10.24 63.024 10.24 128S63.024 245.76 128 245.76 245.76 192.976 245.76 128 192.976 10.24 128 10.24m0 10.24c59.442 0 107.52 48.078 107.52 107.52S187.442 235.52 128 235.52 20.48 187.442 20.48 128 68.558 20.48 128 20.48m46.53 51.38c-3.502 0-7.437.811-12.04 2.47-7.148 2.575-91.216 38.27-100.78 42.33-5.468 2.324-15.65 6.648-15.65 16.96 0 6.835 4.005 11.724 11.89 14.54 4.24 1.51 14.308 4.562 20.15 6.17a29.5 29.5 0 0 0 7.82 1.03c5.3 0 10.632-1.32 14.81-3.65-.036.86-.012 1.73.09 2.6.63 5.376 3.945 10.432 8.86 13.53 3.215 2.028 29.478 19.624 33.4 22.42 5.51 3.937 11.6 6.02 17.6 6.02 11.469 0 15.317-11.842 17.17-17.53 2.688-8.259 12.753-75.417 13.89-87.26.773-8.115-2.609-14.798-9.05-17.88-2.411-1.162-5.165-1.75-8.16-1.75m0 10.24c1.408 0 2.665.233 3.73.75 2.422 1.162 3.654 3.753 3.28 7.67-1.239 12.918-11.28 78.486-13.42 85.06-1.833 5.622-3.764 10.46-7.44 10.46s-7.692-1.289-11.65-4.12c-3.958-2.826-30.24-20.451-33.89-22.75-3.2-2.017-6.587-7.046-1.82-11.91 3.927-4.004 33.715-32.915 36.26-35.46 1.894-1.9 1.009-4.19-.85-4.19-.64 0-1.406.27-2.2.92-3.113 2.545-46.512 31.585-50.27 33.92-2.488 1.546-6.341 2.66-10.34 2.66-1.705 0-3.431-.204-5.09-.66-5.775-1.592-15.549-4.558-19.43-5.94-3.732-1.331-5.09-2.607-5.09-4.89 0-3.246 4.582-5.487 9.41-7.54 5.1-2.166 93.338-39.637 100.24-42.12 3.195-1.157 6.118-1.86 8.57-1.86" fill="#424242" style="mix-blend-mode:normal" text-anchor="none" font-size="none" font-weight="none" font-family="none" data-color="1"/>
    </g>
</svg>
