<?xml version="1.0" encoding="UTF-8"?>
<svg data-bbox="20.48 20.48 215.04 215.04" height="50" width="50" viewBox="0 0 256 256" xmlns="http://www.w3.org/2000/svg" data-type="color">
    <g>
        <path d="M56.32 20.48c-19.734 0-35.84 16.106-35.84 35.84v143.36c0 19.734 16.106 35.84 35.84 35.84h143.36c19.734 0 35.84-16.106 35.84-35.84V56.32c0-19.734-16.106-35.84-35.84-35.84zm0 10.24h143.36a25.52 25.52 0 0 1 25.6 25.6v143.36a25.52 25.52 0 0 1-25.6 25.6H56.32a25.52 25.52 0 0 1-25.6-25.6V56.32a25.52 25.52 0 0 1 25.6-25.6M67 66.56l47.22 67.09-47.66 55.79h12.8L120 141.86l33.48 47.58h40.64l-51.84-73.66 42.04-49.22h-12.8l-35.02 41.01-28.86-41.01zM86.6 76.8h15.69l72.23 102.4h-15.69z" fill="#424242" style="mix-blend-mode:normal" text-anchor="none" font-size="none" font-weight="none" font-family="none" data-color="1"/>
    </g>
</svg>
