<?xml version="1.0" encoding="UTF-8"?>
<svg data-bbox="15.36 46.08 220.66 163.84" height="50" width="50" viewBox="0 0 256 256" xmlns="http://www.w3.org/2000/svg" data-type="color">
    <g>
        <path d="M124.94 46.08c-33.8 0-65.54 2.56-82.44 6.14-11.26 2.56-21 10.24-23.04 22.02-2.04 12.28-4.1 30.72-4.1 53.76s2.04 40.96 4.6 53.76c2.06 11.26 11.78 19.46 23.04 22.02 17.94 3.58 48.64 6.14 82.44 6.14s64.5-2.56 82.42-6.14c11.28-2.56 21-10.24 23.04-22.02 2.06-12.8 4.62-31.22 5.12-54.26 0-23.04-2.56-41.48-5.12-54.28-2.04-11.26-11.76-19.46-23.04-22.02-17.92-2.56-49.14-5.12-82.92-5.12m0 10.24c36.86 0 66.54 3.06 80.88 5.62 7.68 2.06 13.82 7.18 14.84 13.84 3.08 16.38 5.12 33.8 5.12 51.72-.5 22-3.06 39.92-5.12 52.72-1.52 9.72-11.76 12.8-14.84 13.84-18.44 3.58-49.16 6.12-79.88 6.12s-61.94-2.04-79.86-6.12c-7.68-2.06-13.82-7.18-14.84-13.84-4.1-14.34-5.64-33.28-5.64-52.22 0-23.56 2.06-40.96 4.1-51.7 1.54-9.74 12.28-12.82 14.84-13.84 16.9-3.58 48.14-6.14 80.4-6.14M97.28 87.04v81.92L168.96 128zm10.24 17.42L148.48 128l-40.96 23.54z" fill="#424242" style="mix-blend-mode:normal" text-anchor="none" font-size="none" font-weight="none" font-family="none" data-color="1"/>
    </g>
</svg>
